<?xml version="1.0" standalone="no"?>
<!DOCTYPE svg PUBLIC "-//W3C//DTD SVG 20010904//EN"
 "http://www.w3.org/TR/2001/REC-SVG-20010904/DTD/svg10.dtd">
<svg version="1.0" xmlns="http://www.w3.org/2000/svg"
 width="590.000000pt" height="590.000000pt" viewBox="0 0 590.000000 590.000000"
 preserveAspectRatio="xMidYMid meet">
<metadata>
Created by potrace 1.11, written by Peter Selinger 2001-2013
</metadata>
<g transform="translate(0.000000,590.000000) scale(0.100000,-0.100000)"
fill="#000000" stroke="none">
<path d="M1960 5819 c-102 -31 -180 -136 -180 -243 0 -66 15 -103 92 -219 67
-101 71 -111 54 -121 -111 -67 -275 -219 -370 -346 -166 -220 -243 -440 -261
-738 -4 -62 -10 -112 -14 -110 -3 2 -29 15 -56 30 -156 82 -338 80 -498 -4
-67 -36 -166 -137 -201 -206 -57 -113 -56 -91 -56 -907 0 -819 -2 -793 58
-910 32 -64 143 -175 207 -208 92 -46 158 -60 269 -55 107 5 182 27 249 72
l34 23 6 -156 c7 -177 23 -247 82 -346 85 -144 273 -255 432 -255 l43 0 0
-300 c0 -180 4 -320 11 -352 36 -173 176 -325 348 -379 92 -28 226 -27 312 1
154 52 280 177 331 330 20 60 22 90 26 383 l4 317 68 0 69 0 3 -317 c4 -294 6
-323 26 -383 51 -153 177 -278 331 -330 86 -28 220 -29 312 -1 171 53 312 206
348 379 7 32 11 172 11 352 l0 300 43 0 c158 0 348 112 432 255 59 99 75 169
82 346 l6 156 34 -23 c67 -45 142 -67 249 -72 111 -5 177 9 269 55 64 33 175
144 207 208 60 117 58 91 58 910 0 816 1 794 -56 907 -35 69 -134 170 -201
206 -160 84 -342 86 -498 4 -27 -15 -53 -28 -57 -30 -3 -2 -9 46 -12 105 -9
151 -23 233 -57 345 -78 258 -260 511 -491 684 -36 27 -74 54 -84 60 -17 10
-13 20 54 121 40 60 77 125 82 144 34 119 -25 250 -138 305 -54 27 -164 25
-217 -3 -55 -29 -83 -60 -183 -209 -48 -71 -93 -128 -99 -127 -7 2 -70 15
-140 30 -121 26 -143 28 -383 28 -240 0 -262 -2 -383 -28 -70 -15 -133 -28
-140 -30 -6 -1 -51 56 -99 127 -101 149 -128 180 -182 208 -46 24 -136 32
-186 17z m232 -399 c109 -164 137 -200 153 -197 11 3 59 16 107 30 334 99 662
99 996 0 48 -14 96 -27 107 -30 16 -3 44 33 153 197 108 164 136 200 155 200
29 0 47 -18 47 -47 0 -13 -55 -106 -125 -210 l-124 -187 81 -43 c378 -202 618
-541 653 -920 l7 -73 -1452 0 -1452 0 7 78 c34 371 279 715 652 914 l82 44
-124 187 c-70 104 -125 197 -125 210 0 29 18 47 47 47 19 0 47 -36 155 -200z
m-1087 -1519 c62 -27 120 -85 152 -149 l28 -57 0 -740 0 -740 -28 -57 c-55
-111 -152 -172 -277 -172 -125 0 -222 61 -277 172 l-28 57 0 740 c0 731 0 741
21 786 73 158 254 229 409 160z m3295 -1120 c0 -725 -4 -1168 -10 -1202 -13
-72 -71 -153 -146 -204 l-59 -40 -173 -5 -173 -5 1 -410 0 -411 -31 -62 c-54
-109 -147 -167 -269 -166 -124 0 -219 58 -278 169 l-27 50 0 418 0 417 -285 0
-285 0 0 -417 0 -418 -27 -50 c-58 -109 -154 -168 -273 -169 -38 0 -87 5 -108
13 -65 22 -132 84 -166 152 l-31 63 0 411 1 410 -173 5 -173 5 -60 41 c-72 49
-130 127 -144 195 -8 34 -11 424 -11 1204 l0 1155 1450 0 1450 0 0 -1149z
m645 1120 c62 -27 120 -85 152 -149 l28 -57 0 -740 0 -740 -28 -57 c-55 -111
-152 -172 -277 -172 -125 0 -222 61 -277 172 l-28 57 0 740 c0 731 0 741 21
786 73 158 254 229 409 160z"/>
<path d="M2260 4848 c-64 -33 -85 -67 -85 -138 0 -90 54 -149 142 -157 170
-14 233 222 79 296 -54 27 -81 26 -136 -1z"/>
<path d="M3503 4849 c-80 -40 -111 -131 -71 -209 57 -111 195 -119 272 -16 29
39 29 133 0 173 -24 33 -97 73 -134 73 -14 0 -44 -9 -67 -21z"/>
</g>
</svg>
